<?xml version="1.0" encoding="utf-8"?>
<!-- Generator: Adobe Illustrator 18.0.0, SVG Export Plug-In . SVG Version: 6.00 Build 0)  -->
<!DOCTYPE svg PUBLIC "-//W3C//DTD SVG 1.0//EN" "http://www.w3.org/TR/2001/REC-SVG-20010904/DTD/svg10.dtd">
<svg version="1.0" id="Layer_1" xmlns="http://www.w3.org/2000/svg" xmlns:xlink="http://www.w3.org/1999/xlink" x="0px" y="0px"
	 viewBox="0 0 512 512" enable-background="new 0 0 512 512" xml:space="preserve">
<path d="M509.9,251.6c5.9,76.6-21.4,148.1-69.8,200.3c39-50.2,60.2-114.5,55-182.9c-0.2-2-0.3-4-0.5-6c-0.1-0.6-0.1-1.3-0.2-1.9
	c-0.2-1.4-0.3-2.8-0.5-4.1c-0.1-0.7-0.2-1.5-0.3-2.2c-0.2-1.7-0.5-3.4-0.7-5.2c-0.2-1.2-0.4-2.4-0.6-3.6c-0.1-0.5-0.2-1.1-0.3-1.6
	C469.2,111.1,348.1,14.6,210.6,25.2c-69.3,5.3-130.3,36.9-174.1,84.2C80.7,52.5,147.9,13.8,225.4,7.8
	C362.9-2.8,484,93.6,506.8,226.9c0.1,0.5,0.2,1.1,0.3,1.6c0.2,1.2,0.4,2.4,0.6,3.6c0.3,1.7,0.5,3.4,0.7,5.1c0.1,0.7,0.2,1.5,0.3,2.2
	c0.2,1.4,0.3,2.8,0.5,4.1c0.1,0.6,0.1,1.3,0.2,1.9C509.5,247.6,509.7,249.6,509.9,251.6"/>
<path d="M402.5,145.2c-9.9,7.5-12,8.2-12,8.2s-11.7,1.5-24.5,5.5c-7.7,2.4-15.7,4.1-23.7,4.9c-9.2,0.9-15.2,0.9-24.9-4.1
	c8.2-0.9,25.5-1.9,25.5-1.9s-20.9-18.9-47.9-21.1c-27-2.3-47.8-2.1-66.8,3.3c-19,5.4-47.4,12.5-54,10.9c7.2-2.6,35.3-10.8,41.1-15.9
	c0,0-41.8,1.4-66.9-9.1c-25.1-10.5-43.5-22.5-47.9-27.6c0,0-16.6,18.6-7,42.5c-11.6-4.3-36.6-17.7-45-26.2
	c-3.9,4.6-22.3,19.8,5.2,76.2c-17.7,27.2-34,52.6-40.8,84.5c-6.8,31.9-10.9,56.1-1.8,92.1c7.9-31.9,9.2-43.5,20.1-54.6
	c-3.2,13.1-14.4,60.7-7.5,86.5c6.9,25.7,11.6,39.7,25.1,56.2c-4.7-17.5-8.7-44.3,1-54c0.7,9.9,1.3,41.1,15.4,59.8
	c14,18.7,26.5,30.2,57.1,34.9C106,484,84.7,465,83,448.3c11.2,11.1,36.9,35.8,65.5,48.1c28.5,12.3,63.2,16,89.7,12.8
	c-21.3-7.6-43.3-14.1-48.7-29.1c0,0,38.1,19.3,77.4,6.1c-30.8-8.3-48.7-21.8-52.5-27.8c16.9,3.9,59.6,11.4,89-5.5
	c-17.2-3.7-28.5-4.8-36.3-18.4c11.8,1.2,51.7,8.3,83-15.6c-15,0.2-26.9,0.8-36.6-2.2c-9.4-2.8-16.7-10.4-18.7-20
	c-1.9-9.2,0.6-21.6,19.5-34.3c9.9-6.7,21.2-11.1,32.9-13.4c13.5-2.6,27.9-4,42.6-3.7c8.3,0.2,16.7-0.6,24.8-2.5
	c15.4-3.6,26.7-10.7,23.2-33.8l-6.6-1.2c0,0,4.9-11.6-1.9-16.2c0,0-5.4,9-9.6,11.7c-7.8,0.3-27,7.1-44.1-22.7
	c9.7,8.2,18.9,18.3,33.6,14.6c-7.1-7.5-48.1-54.5-8.5-81.7c6.8,7.8,7.7,11.6,9.3,19c3.4-3.9,11.2-11.5,4.1-27.9
	c5.5,0.5,8.9-0.2,8.9-0.2l4.6,11.1c0,0,5.3-6.5,5.1-10.6c4.8,0.6,7.4,1.9,7.6,4.3c4.4-3.3,10.7-7.8-2.2-25.2
	C438.2,170.9,441.8,122.9,402.5,145.2 M89.4,360.9c-10-14.1-11.5-39.5-11.5-39.5s-6.1,16.7-9.2,25.6c-4.6-22.7,0.3-48.9,2.5-60.7
	c-4.5,4.1-11.9,13-15.9,20.6c1-50.2,24.7-85.1,25.4-86.2c-8.3,19.5-9.2,47.5-9.6,53.7c5.9-5.9,17.4-12.2,17.4-12.2
	c-5.3,6.4-7.5,32-8.7,42.3c5.6-5.6,15.9-15.3,16.2-15.6c-0.3,0.6-10,24.1-2.9,48.7c6.7,25.6,30,46.1,45.1,58
	C113.2,387.6,99.4,375.1,89.4,360.9 M279.5,188.3c-4.4,2.7-11.2,1.2-20.5-2.1c19.6-21.4,37.1-8,37.1-8
	C292.2,177.6,283.9,185.6,279.5,188.3"/>
<g>
	<path d="M321.5,441.8c0-0.6,0.3-1,0.9-1l15,0.1c10.5,0.1,16.4,8,16.3,14.6c0,4.8-0.2,12.2-8.3,14.7l0,0.2c5.1,1.9,8.4,7.3,8.3,13.6
		c0,4.1-0.2,17.5-16.9,17.3l-15-0.1c-0.6,0-0.8-0.4-0.8-0.9L321.5,441.8z M335.6,488.7c0,0.3,0.2,0.6,0.6,0.6c1.3,0,2.4-0.9,2.4-2.3
		l0.1-8.5c0-1.4-1.2-2.2-2.5-2.2c-0.3,0-0.5,0.2-0.5,0.6L335.6,488.7z M335.8,463.7c0,0.3,0.2,0.6,0.6,0.6c1.1,0,2.3-0.7,2.4-2.3
		l0.1-6.9c0-1.4-1.4-2.1-2.3-2.1c-0.3,0-0.6,0.2-0.6,0.5L335.8,463.7z"/>
	<path d="M386.2,485.1c0.6,0,0.9,0.4,0.9,0.8l-0.1,15c0,0.5-0.4,0.9-0.9,0.9l-28.8-0.3c-0.5,0-0.9-0.5-0.9-1.1l0.5-58.2
		c0-0.5,0.5-1.1,1.1-1.1l13.6,0.1c0.5,0,0.8,0.4,0.8,0.9l-0.4,42.3c0,0.3,0.2,0.6,0.5,0.6L386.2,485.1z"/>
	<path d="M398.5,441.5c0.6,0,1.1,0.4,1.2,1.1l1.6,19.1c0.1,0.9,0.3,1.5,0.6,1.5s0.7-0.6,0.7-1.5l2.1-19.1c0.2-0.6,0.4-1,1-1l8.2,0.1
		c0.4,0,0.9,0.4,1,0.9l1.9,19.3c0.1,0.9,0.3,1.5,0.6,1.5s0.7-0.6,0.7-1.5l1.8-19.2c0.1-0.6,0.4-1,0.9-1l13,0.1c0.8,0,1,0.5,1,1.1
		l-8,58c-0.1,0.8-0.6,1.2-1.1,1.2l-11.8-0.1c-0.5,0-0.9-0.4-1-0.9l-2.9-19.5c-0.1-0.7-0.3-1.3-0.6-1.3s-0.6,0.6-0.7,1.4l-3,19.3
		c-0.2,0.6-0.4,1-0.9,1l-11.9-0.1c-0.6,0-1-0.5-1.1-1.1l-7.2-58.4c-0.1-0.7,0.3-1,0.9-1L398.5,441.5z"/>
</g>
</svg>
